<svg width="190" height="57" viewBox="0 0 190 57" fill="none" xmlns="http://www.w3.org/2000/svg">
<g clip-path="url(#clip0_21_2)">
<path d="M159.388 21.9749C160.843 22.0969 162.226 22.2829 163.595 22.8901C164.757 23.4188 165.561 24.2787 166.218 25.345C166.808 26.3385 166.485 27.579 165.416 28.3053C164.489 28.9677 163.447 28.93 162.433 28.131C162.026 27.8376 161.625 27.4076 161.218 27.1142C160.207 26.2456 158.4 26.1816 157.264 26.905C156.552 27.367 156.175 28.1862 156.358 28.9561C156.544 29.5894 156.945 30.0194 157.563 30.2489C158.113 30.4755 158.734 30.5685 159.283 30.7283C160.524 31.0508 161.761 31.3732 162.929 31.7625C164.37 32.3 165.524 33.1047 166.381 34.3859C167.9 36.5939 167.723 39.6443 166.113 41.8813C164.873 43.5053 163.243 44.4205 161.218 44.6965C158.772 45.0945 156.416 44.8737 154.161 43.7523C152.866 43.0812 151.785 42.1399 150.998 40.8616C150.475 39.9407 150.582 38.9006 151.303 38.1627C152.386 37.0209 153.778 37.0006 154.987 38.154C155.187 38.369 155.387 38.5839 155.588 38.8018C156.59 39.9494 157.895 40.4113 159.356 40.3242C159.914 40.2748 160.405 40.1527 160.902 39.8245C162.04 39.0313 162.098 37.4335 160.945 36.6287C160.402 36.2627 159.783 36.1 159.161 35.9402C157.924 35.548 156.613 35.2923 155.379 34.8333C153.935 34.3656 152.715 33.4882 151.927 32.2099C150.475 30.0746 150.652 27.0213 152.398 24.8598C153.458 23.5118 154.786 22.6635 156.355 22.2219C157.343 21.9401 158.371 21.9401 159.388 21.9749Z" fill="#020203"/>
<path d="M96.6997 56.0674C98.3673 56.0674 99.6862 54.7514 99.6862 53.0896V46.5849V41.832C101.409 43.5838 103.663 44.6471 106.133 44.6471C111.539 44.6471 115.923 39.5601 115.923 33.2849C115.923 27.0096 111.539 21.9226 106.133 21.9226C103.661 21.9226 101.403 22.9888 99.6804 24.7465C99.5991 23.1603 98.315 21.9226 96.6997 21.9226C95.0321 21.9226 93.7131 23.2387 93.7131 24.9005V29.5343V46.582V53.0867C93.7102 54.7514 95.0321 56.0674 96.6997 56.0674ZM105.067 27.1113C108.068 27.1113 110.499 29.8742 110.499 33.2849C110.499 36.6956 108.068 39.4584 105.067 39.4584C102.066 39.4584 99.6339 36.6956 99.6339 33.2849C99.6339 29.8771 102.066 27.1113 105.067 27.1113Z" fill="#020203"/>
<path d="M136.257 11.5975C134.589 11.5975 133.27 12.9136 133.27 14.5754V19.9558V24.7087C131.547 22.9569 129.293 21.8936 126.823 21.8936C121.417 21.8936 117.033 26.9806 117.033 33.2558C117.033 39.531 121.417 44.618 126.823 44.618C129.296 44.618 131.553 43.5518 133.276 41.7942C133.357 43.3804 134.641 44.618 136.257 44.618C137.924 44.618 139.243 43.302 139.243 41.6402V37.0064V19.9587V14.5783C139.243 12.9136 137.924 11.5975 136.257 11.5975ZM127.89 39.4294C124.889 39.4294 122.457 36.6665 122.457 33.2558C122.457 29.8451 124.889 27.0823 127.89 27.0823C130.891 27.0823 133.322 29.8451 133.322 33.2558C133.322 36.6665 130.891 39.4294 127.89 39.4294Z" fill="#020203"/>
<path d="M49.9723 22.6431H49.0397L48.9729 21.6554C48.8944 20.8622 48.694 20.1272 48.4935 19.3254C47.5145 15.6154 45.5564 12.5388 42.7557 10.0171C40.0278 7.56804 36.8785 6.09801 33.3807 5.46758C33.5898 4.9766 33.7293 4.48853 33.7293 3.92783C33.7293 1.89709 32.1198 0.287613 30.092 0.287613C28.1339 0.287613 26.4547 1.89709 26.4547 3.92783C26.4547 4.48853 26.5941 4.9766 26.8033 5.39786C25.894 5.53731 24.9149 5.81911 24.0056 6.09801C21.696 6.93761 19.5984 8.12874 17.7797 9.73822H2.88189C1.41186 9.80795 0.223633 10.9991 0.223633 12.4662C0.223633 13.9333 1.41186 15.1245 2.88189 15.1245H13.6544C13.4452 15.4731 13.3057 15.8246 13.0937 16.1732H6.59183C5.1218 16.1732 3.93357 17.3644 3.93357 18.8315C3.93357 20.3015 5.1218 21.4898 6.59183 21.4898H11.5597C11.49 21.8355 11.4377 22.2451 11.4203 22.6373H9.97057C8.62837 22.6373 7.53311 23.7355 7.53311 25.0748V25.3188C7.53311 26.661 8.63128 27.7563 9.97057 27.7563H24.7057L24.6389 30.7951L15.8245 34.293C15.1244 34.5719 14.5666 35.1326 14.3545 35.9024C14.1453 36.6026 14.2151 37.4422 14.5637 38.0726L16.8733 42.0615C17.3643 42.9011 18.2736 43.392 19.1132 43.392C19.5316 43.392 20.0226 43.2526 20.4438 43.0434C21.7018 42.2735 22.123 40.6641 21.3531 39.4032L20.5833 38.0726L28.2094 34.9234C29.1885 34.5021 29.8189 33.5928 29.8189 32.544L29.9583 27.7563H30.9577L34.0169 33.9443L29.9583 40.5914C29.4674 41.431 29.3976 42.4101 29.8886 43.2497C30.3796 44.0893 31.2192 44.5803 32.1982 44.5803H37.0267C38.4967 44.5803 39.6849 43.3891 39.6849 41.922C39.6849 40.452 38.4967 39.2638 37.0267 39.2638H36.8872L39.2666 35.4144C39.7576 34.6445 39.8273 33.6654 39.406 32.8258L36.9076 27.7592H49.981C51.3232 27.7592 52.4184 26.661 52.4184 25.3217V25.0777C52.4097 23.7413 51.3145 22.6431 49.9723 22.6431ZM42.0585 21.8732C42.0207 21.8761 41.9859 21.8761 41.9481 21.8761C41.2015 21.8761 40.5739 21.2922 40.5158 20.5456C40.1294 15.4121 36.6171 13.605 34.5573 12.9833C33.799 12.7538 33.3661 11.952 33.5956 11.1937C33.8223 10.4384 34.627 10.0055 35.3853 10.2321C40.0917 11.6498 43.0056 15.3307 43.3804 20.3306C43.4443 21.1237 42.8487 21.8151 42.0585 21.8732Z" fill="#020203"/>
<path d="M85.2415 18.6717C83.8906 17.3208 83.8906 15.1012 85.2909 13.7038C86.6418 12.3529 88.9078 12.3035 90.3081 13.7038C91.7084 15.1041 91.7084 17.3208 90.3081 18.7211C88.9078 20.1185 86.6418 20.0691 85.2415 18.6717Z" fill="#020203"/>
<path d="M90.7642 41.5618C90.7642 43.2265 89.4016 44.589 87.7369 44.589C86.0723 44.589 84.7097 43.2265 84.7097 41.5618V24.9499C84.7097 23.2852 86.0723 21.9226 87.7369 21.9226C89.4016 21.9226 90.7642 23.2852 90.7642 24.9499V41.5618Z" fill="#020203"/>
<path d="M142.724 18.6717C141.373 17.3208 141.373 15.1012 142.773 13.7038C144.124 12.3529 146.39 12.3035 147.79 13.7038C149.191 15.1041 149.191 17.3208 147.79 18.7211C146.39 20.1185 144.124 20.0691 142.724 18.6717Z" fill="#020203"/>
<path d="M148.247 41.5618C148.247 43.2265 146.884 44.589 145.219 44.589C143.555 44.589 142.192 43.2265 142.192 41.5618V24.9499C142.192 23.2852 143.555 21.9226 145.219 21.9226C146.884 21.9226 148.247 23.2852 148.247 24.9499V41.5618Z" fill="#020203"/>
<path d="M81.7495 41.5821C81.7495 43.2468 80.387 44.6093 78.7223 44.6093C77.0576 44.6093 75.6951 43.2468 75.6951 41.5821V14.1135C75.6951 12.4488 77.0576 11.0862 78.7223 11.0862C80.387 11.0862 81.7495 12.4488 81.7495 14.1135V41.5821Z" fill="#020203"/>
<path d="M67.5082 17.8002C67.8801 17.2307 68.4292 16.7804 69.2078 16.6061C69.6203 16.519 70.0561 16.4957 70.4192 16.4725C71.0061 16.4347 71.5842 16.5277 72.0955 16.4551C73.9171 16.2372 74.7189 14.3401 73.7718 12.809C73.2605 12.0072 72.5342 11.5685 71.6568 11.3506C70.4192 10.9875 69.1787 10.9875 67.8685 11.1327C64.0801 11.644 61.3812 14.4127 61.0906 18.2766C61.0383 19.1336 61.0238 19.95 61.018 20.7838L61.0151 20.7867V21.7047V22.646H58.1244C56.7154 22.646 55.5649 23.7994 55.5649 25.2055C55.5649 26.6145 56.7183 27.765 58.1244 27.765H61.0151L61.0558 41.6257C61.0558 43.2904 62.4183 44.6529 64.083 44.6529C65.7477 44.6529 67.1102 43.2904 67.1102 41.6257L67.1131 27.8057V27.765H70.1752C71.5842 27.765 72.7347 26.6116 72.7347 25.2055C72.7347 23.7965 71.5813 22.646 70.1752 22.646H67.1131V18.8838C67.116 18.5003 67.299 18.1197 67.5082 17.8002Z" fill="#020203"/>
<path d="M189.41 27.4832C188.754 25.0777 187.513 23.1835 185.177 22.1638C183.498 21.3619 181.674 21.2167 179.849 21.5072C178.124 21.7948 176.61 22.4398 175.378 23.7122V13.8723C175.378 12.2076 174.016 10.8451 172.351 10.8451C170.686 10.8451 169.324 12.2076 169.324 13.8723V41.7158C169.324 43.3804 170.686 44.743 172.351 44.743C174.016 44.743 175.378 43.3804 175.378 41.7158V30.3564C175.622 29.235 176.125 28.3054 177.075 27.6313C178.025 26.9021 179.12 26.8295 180.288 26.9748C181.749 27.1927 182.769 27.9219 183.28 29.2321C183.574 29.9613 183.646 30.6905 183.646 31.4168C183.646 35.2052 183.646 37.8925 183.646 41.6809C183.646 43.3572 184.96 44.7401 186.711 44.7401C188.391 44.7401 189.776 43.3572 189.776 41.6809C189.776 37.5265 189.776 34.476 189.776 30.2518C189.776 29.3047 189.628 28.3576 189.41 27.4832Z" fill="#020203"/>
</g>
<defs>
<clipPath id="clip0_21_2">
<rect width="190" height="56.0703" fill="white"/>
</clipPath>
</defs>
</svg>
